<?xml version="1.0" encoding="UTF-8" standalone="no"?>
<!-- Created with Inkscape (http://www.inkscape.org/) -->

<svg
   xmlns:dc="http://purl.org/dc/elements/1.1/"
   xmlns:cc="http://creativecommons.org/ns#"
   xmlns:rdf="http://www.w3.org/1999/02/22-rdf-syntax-ns#"
   xmlns:svg="http://www.w3.org/2000/svg"
   xmlns="http://www.w3.org/2000/svg"
   xmlns:sodipodi="http://sodipodi.sourceforge.net/DTD/sodipodi-0.dtd"
   xmlns:inkscape="http://www.inkscape.org/namespaces/inkscape"
   width="210mm"
   height="297mm"
   viewBox="0 0 744.09448819 1052.3622047"
   id="svg2"
   version="1.1"
   inkscape:version="0.91 r13725"
   sodipodi:docname="jiji.svg">
  <defs
     id="defs4" />
  <sodipodi:namedview
     id="base"
     pagecolor="#ffffff"
     bordercolor="#666666"
     borderopacity="1.0"
     inkscape:pageopacity="0.0"
     inkscape:pageshadow="2"
     inkscape:zoom="0.35"
     inkscape:cx="-42.142857"
     inkscape:cy="520"
     inkscape:document-units="px"
     inkscape:current-layer="layer1"
     showgrid="false"
     inkscape:window-width="1440"
     inkscape:window-height="805"
     inkscape:window-x="15"
     inkscape:window-y="0"
     inkscape:window-maximized="0" />
  <metadata
     id="metadata7">
    <rdf:RDF>
      <cc:Work
         rdf:about="">
        <dc:format>image/svg+xml</dc:format>
        <dc:type
           rdf:resource="http://purl.org/dc/dcmitype/StillImage" />
        <dc:title></dc:title>
      </cc:Work>
    </rdf:RDF>
  </metadata>
  <g
     inkscape:label="Layer 1"
     inkscape:groupmode="layer"
     id="layer1">
    <ellipse
       style="fill:#000000;stroke:#000000"
       id="path3336"
       cx="357.14285"
       cy="838.07648"
       rx="211.42857"
       ry="214.28572" />
    <ellipse
       style="fill:#000000;stroke:#000000;stroke-width:0.80092919"
       id="path3340"
       ry="140.09952"
       rx="242.95668"
       cy="909.50507"
       cx="360" />
    <path
       style="fill:#000000;stroke:#000000;stroke-width:1px;stroke-linecap:butt;stroke-linejoin:miter;stroke-opacity:1"
       d="m 117.14286,903.79078 c 0,0 22.85714,-91.42858 45.71428,-140 22.85715,-48.57143 14.28572,128.57142 14.28572,128.57142 z"
       id="path3344"
       inkscape:connector-curvature="0" />
    <path
       style="fill:#000000;stroke:#000000;stroke-width:1px;stroke-linecap:butt;stroke-linejoin:miter;stroke-opacity:1"
       d="m 554.28571,766.64792 c 0,0 54.28572,91.42857 48.57143,125.71428 -5.71428,34.28572 -114.28571,42.85715 -114.28571,42.85715 z"
       id="path3346"
       inkscape:connector-curvature="0" />
    <path
       style="fill:none;stroke:#000000;stroke-width:8;stroke-linecap:butt;stroke-linejoin:miter;stroke-opacity:1;stroke-miterlimit:4;stroke-dasharray:none"
       d="m 580,878.07649 c 0,0 71.42857,-37.14286 102.85714,-17.14286 31.42857,20 34.28572,20 34.28572,20"
       id="path4160"
       inkscape:connector-curvature="0" />
    <path
       style="fill:none;stroke:#000000;stroke-width:8;stroke-linecap:butt;stroke-linejoin:miter;stroke-opacity:1;stroke-miterlimit:4;stroke-dasharray:none"
       d="m 580,920.93363 c 54.28571,-2.85714 62.85714,2.85715 88.57143,11.42857 25.71428,8.57143 25.71428,8.57143 25.71428,8.57143"
       id="path4182"
       inkscape:connector-curvature="0" />
    <path
       style="fill:none;stroke:#000000;stroke-width:8;stroke-linecap:butt;stroke-linejoin:miter;stroke-opacity:1;stroke-miterlimit:4;stroke-dasharray:none"
       d="m 160,849.50506 c -62.857143,-8.57143 -57.14286,-20 -88.571429,-2.85714 C 40,863.79078 42.857143,860.93363 42.857143,860.93363"
       id="path4186"
       inkscape:connector-curvature="0" />
    <path
       style="fill:none;stroke:#000000;stroke-width:8;stroke-linecap:butt;stroke-linejoin:miter;stroke-opacity:1;stroke-miterlimit:4;stroke-dasharray:none"
       d="m 122.85714,920.93363 c 0,0 -31.428569,-8.57143 -57.142854,5.71429 C 40,940.93363 42.857143,940.93363 42.857143,940.93363 l 0,0"
       id="path4188"
       inkscape:connector-curvature="0" />
    <path
       style="fill:none;stroke:#000000;stroke-width:5;stroke-linecap:butt;stroke-linejoin:miter;stroke-opacity:1;stroke-miterlimit:4;stroke-dasharray:none"
       d="m 331.42857,638.07649 c 0,0 -131.42857,-414.28571 -185.71428,-457.14286 -54.285719,-42.85714 -22.85715,557.14286 5.71428,625.71429 28.57143,68.57143 25.71429,68.57143 25.71429,68.57143"
       id="path4196"
       inkscape:connector-curvature="0" />
    <path
       style="fill:none;stroke:#000000;stroke-width:5;stroke-linecap:butt;stroke-linejoin:miter;stroke-opacity:1;stroke-miterlimit:4;stroke-dasharray:none"
       d="m 445.71429,649.50506 c 0,0 102.85714,-508.57143 151.42857,-457.14286 C 645.71429,243.79078 580,826.64792 580,826.64792"
       id="path4198"
       inkscape:connector-curvature="0" />
    <path
       style="fill:none;stroke:#000000;stroke-width:1px;stroke-linecap:butt;stroke-linejoin:miter;stroke-opacity:1"
       d="M 285.71429,640.93363 122.85714,209.50506"
       id="path4200"
       inkscape:connector-curvature="0" />
    <path
       style="fill:none;stroke:#000000;stroke-width:1px;stroke-linecap:butt;stroke-linejoin:miter;stroke-opacity:1"
       d="m 465.71429,672.3622 137.14285,-460 0,0"
       id="path4202"
       inkscape:connector-curvature="0" />
    <path
       style="fill:#000000;stroke:#000000;stroke-width:14.28571415;stroke-miterlimit:4;stroke-dasharray:none"
       d="m 206.13855,424.88926 -78.86144,-209.21162 3.71493,-14.08263 c 5.42456,-20.56356 8.55448,-22.29985 18.70357,-10.37566 28.4689,33.44818 81.22499,160.55029 144.81203,348.88703 l 28.56345,84.60134 -16.1784,3.62008 c -8.89812,1.99106 -17.46412,4.10455 -19.03555,4.6966 -1.57143,0.59206 -38.34479,-93.06874 -81.71859,-208.13514 z"
       id="path4208"
       inkscape:connector-curvature="0" />
    <path
       style="fill:#000000;stroke:#000000;stroke-width:14.28571415;stroke-miterlimit:4;stroke-dasharray:none"
       d="m 459.99043,648.94318 c -4.31617,-2.61892 -7.84757,-6.62798 -7.84757,-8.90906 0,-7.05389 25.17632,-118.15172 43.1091,-190.23139 41.33564,-166.14601 75.48471,-258.03343 94.83162,-255.17039 15.31672,2.26663 14.90687,4.05541 -53.72977,234.49759 -35.67976,119.79205 -65.69209,219.32722 -66.69405,221.18927 -1.34149,2.49306 -3.89061,2.13029 -9.66933,-1.37602 z"
       id="path4210"
       inkscape:connector-curvature="0" />
    <path
       style="fill:#ffffff;stroke:#000000;stroke-width:14.28571415;stroke-miterlimit:4;stroke-dasharray:none"
       d="M 148.33826,778.18192 C 143.3259,761.58703 133.82097,672.54209 127.66473,584.50629 119.59349,469.08551 118.84567,226.34235 126.60404,240.2058 c 1.3193,2.35746 25.14895,64.62136 52.95477,138.36421 27.80582,73.74285 61.68122,161.96402 75.27867,196.04708 l 24.72265,61.96914 -11.49893,5.17372 c -48.45326,21.80051 -91.29639,68.57011 -110.12677,120.2196 -5.70988,15.66148 -8.39182,20.18974 -9.59617,16.20237 z"
       id="path4222"
       inkscape:connector-curvature="0" />
    <path
       style="fill:#ffffff;stroke:#000000;stroke-width:14.28571415;stroke-miterlimit:4;stroke-dasharray:none"
       d="m 570.32667,791.77758 c -3.32717,-5.80703 -9.61367,-19.49409 -13.97,-30.41572 C 552.00034,750.44026 543.88812,733.72598 538.32951,724.219 528.79445,707.91109 495.275,671.2668 481.621,662.22389 l -6.23614,-4.13011 5.68239,-17.00866 c 14.50427,-43.41446 114.5207,-381.11173 120.85591,-408.06005 1.0595,-4.50686 2.51878,-7.60187 3.24284,-6.87781 0.72407,0.72406 2.70059,22.37145 4.39229,48.10531 5.60776,85.30454 -1.8577,220.06772 -27.76782,501.25249 -2.45512,26.64374 -4.1462,29.04417 -11.4638,16.27252 z"
       id="path4224"
       inkscape:connector-curvature="0" />
    <path
       style="fill:none;stroke:#000000;stroke-width:8;stroke-linecap:butt;stroke-linejoin:miter;stroke-opacity:1;stroke-miterlimit:4;stroke-dasharray:none"
       d="m 200,449.50506 c 0,0 -14.28571,171.42857 -8.57143,234.28572 C 197.14286,746.64792 200,746.64792 200,746.64792"
       id="path4226"
       inkscape:connector-curvature="0" />
    <path
       style="fill:none;stroke:#000000;stroke-width:8;stroke-linecap:butt;stroke-linejoin:miter;stroke-opacity:1;stroke-miterlimit:4;stroke-dasharray:none"
       d="m 540,472.3622 c 0,0 22.85714,205.71429 0,231.42858 -22.85714,25.71428 -22.85714,28.57142 -22.85714,28.57142 l 0,0"
       id="path4228"
       inkscape:connector-curvature="0" />
    <path
       style="fill:#ffffff;stroke:#ffffff;stroke-width:8;stroke-miterlimit:4;stroke-dasharray:none"
       id="path4240"
       sodipodi:type="arc"
       sodipodi:cx="271.42856"
       sodipodi:cy="793.79077"
       sodipodi:rx="62.857143"
       sodipodi:ry="64.285713"
       sodipodi:start="0"
       sodipodi:end="6.2559931"
       d="m 334.2857,793.79077 a 62.857143,64.285713 0 0 1 -62.42984,64.28423 62.857143,64.285713 0 0 1 -63.27864,-63.41022 62.857143,64.285713 0 0 1 61.56951,-65.14635 62.857143,64.285713 0 0 1 64.11573,62.52449 l -62.8339,1.74785 z" />
    <path
       style="fill:#ffffff;stroke:#ffffff;stroke-width:8;stroke-miterlimit:4;stroke-dasharray:none"
       id="path4250"
       sodipodi:type="arc"
       sodipodi:cx="462.85715"
       sodipodi:cy="800.93365"
       sodipodi:rx="62.857143"
       sodipodi:ry="62.857143"
       sodipodi:start="0"
       sodipodi:end="6.2559931"
       d="m 525.71429,800.93365 a 62.857143,62.857143 0 0 1 -62.42984,62.8557 62.857143,62.857143 0 0 1 -63.27864,-62.00111 62.857143,62.857143 0 0 1 61.56951,-63.69866 62.857143,62.857143 0 0 1 64.11573,61.13506 l -62.8339,1.70901 z" />
    <path
       style="fill:#000000;stroke:#000000;stroke-width:8;stroke-miterlimit:4;stroke-dasharray:none"
       id="path4252"
       sodipodi:type="arc"
       sodipodi:cx="270"
       sodipodi:cy="792.36218"
       sodipodi:rx="24.285715"
       sodipodi:ry="25.714285"
       sodipodi:start="0"
       sodipodi:end="6.2559931"
       d="m 294.28572,792.36218 a 24.285715,25.714285 0 0 1 -24.12063,25.71369 24.285715,25.714285 0 0 1 -24.44856,-25.36408 24.285715,25.714285 0 0 1 23.78822,-26.05854 24.285715,25.714285 0 0 1 24.77199,25.00979 L 270,792.36218 Z" />
    <path
       style="fill:#000000;stroke:#000000;stroke-width:8;stroke-miterlimit:4;stroke-dasharray:none"
       id="path4258"
       sodipodi:type="arc"
       sodipodi:cx="458.57144"
       sodipodi:cy="802.36218"
       sodipodi:rx="21.428572"
       sodipodi:ry="24.285715"
       sodipodi:start="0"
       sodipodi:end="6.2559931"
       d="m 480.00001,802.36218 a 21.428572,24.285715 0 0 1 -21.2829,24.28516 21.428572,24.285715 0 0 1 -21.57226,-23.95498 21.428572,24.285715 0 0 1 20.9896,-24.61084 21.428572,24.285715 0 0 1 21.85764,23.62036 l -21.42065,0.6603 z" />
    <path
       style="fill:#ffffff;stroke:#ffffff;stroke-width:8;stroke-miterlimit:4;stroke-dasharray:none"
       id="path4266"
       sodipodi:type="arc"
       sodipodi:cx="358.57144"
       sodipodi:cy="886.64795"
       sodipodi:rx="32.857143"
       sodipodi:ry="8.5714283"
       sodipodi:start="0"
       sodipodi:end="6.2559931"
       d="m 391.42859,886.64795 a 32.857143,8.5714283 0 0 1 -32.63379,8.57123 32.857143,8.5714283 0 0 1 -33.07746,-8.4547 32.857143,8.5714283 0 0 1 32.18405,-8.68618 32.857143,8.5714283 0 0 1 33.51505,8.3366 l -32.845,0.23305 z" />
    <path
       style="fill:#000000;stroke:#000000;stroke-width:1px;stroke-linecap:butt;stroke-linejoin:miter;stroke-opacity:1"
       d="M 557.14258 989.50586 L 197.14258 1012.3613 L 228.57422 1058.0781 C 231.76743 1058.0774 234.96109 1058.079 238.1543 1058.0723 C 245.88211 1058.0722 253.6082 1058.121 261.33594 1058.082 C 267.89861 1057.9603 274.49206 1057.7597 281.03125 1058.4336 C 287.93273 1058.6542 294.70867 1056.6885 301.59961 1056.6621 C 305.07137 1056.6491 308.55174 1056.9091 311.99023 1057.3887 C 312.24539 1057.4247 311.73085 1057.8338 311.60156 1058.0566 C 317.86278 1058.0306 324.12477 1058.0384 330.38086 1058.3223 C 340.44138 1057.3658 342.50113 1056.7838 352.93164 1060.1211 C 353.35173 1060.2555 352.05401 1060.0311 351.61523 1059.9863 C 354.91941 1061.8226 359.00702 1060.6469 362.69922 1060.9355 C 368.44837 1060.936 374.19812 1060.9455 379.94727 1060.9355 C 385.22229 1060.9255 390.49646 1060.9699 395.77148 1060.9629 C 403.12971 1060.9009 410.4959 1060.6641 417.84375 1061.2285 C 417.16559 1061.3633 416.74863 1061.419 418.98242 1061.332 C 420.31651 1061.28 421.65304 1061.2249 422.98047 1061.082 C 433.23541 1059.978 443.38984 1058.4725 453.77734 1059.7051 C 459.08807 1060.3353 463.22573 1061.8121 466.26172 1063.7773 C 466.35025 1063.7339 466.44692 1063.6804 466.53125 1063.6426 L 557.14258 989.50586 z "
       id="path4270" />
  </g>
</svg>
