<?xml version="1.0" encoding="UTF-8" standalone="no"?>
<!-- Created with Inkscape (http://www.inkscape.org/) -->

<svg
   xmlns:dc="http://purl.org/dc/elements/1.1/"
   xmlns:cc="http://creativecommons.org/ns#"
   xmlns:rdf="http://www.w3.org/1999/02/22-rdf-syntax-ns#"
   xmlns:svg="http://www.w3.org/2000/svg"
   xmlns="http://www.w3.org/2000/svg"
   xmlns:sodipodi="http://sodipodi.sourceforge.net/DTD/sodipodi-0.dtd"
   xmlns:inkscape="http://www.inkscape.org/namespaces/inkscape"
   width="255mm"
   height="338mm"
   viewBox="0 0 903.54344 1197.6375"
   id="svg2"
   version="1.1"
   inkscape:version="0.91 r13725"
   sodipodi:docname="miniTotoroClosed.svg">
  <defs
     id="defs4" />
  <sodipodi:namedview
     id="base"
     pagecolor="#ffffff"
     bordercolor="#666666"
     borderopacity="1.0"
     inkscape:pageopacity="0.0"
     inkscape:pageshadow="2"
     inkscape:zoom="1.979899"
     inkscape:cx="435.15724"
     inkscape:cy="604.64969"
     inkscape:document-units="px"
     inkscape:current-layer="layer2"
     showgrid="false"
     inkscape:window-width="1440"
     inkscape:window-height="791"
     inkscape:window-x="47"
     inkscape:window-y="0"
     inkscape:window-maximized="0" />
  <metadata
     id="metadata7">
    <rdf:RDF>
      <cc:Work
         rdf:about="">
        <dc:format>image/svg+xml</dc:format>
        <dc:type
           rdf:resource="http://purl.org/dc/dcmitype/StillImage" />
        <dc:title></dc:title>
      </cc:Work>
    </rdf:RDF>
  </metadata>
  <g
     inkscape:label="Layer 1"
     inkscape:groupmode="layer"
     id="layer1"
     transform="translate(0,145.27562)"
     sodipodi:insensitive="true">
    <path
       style="fill:#fff6d5;stroke-width:4;stroke-miterlimit:4;stroke-dasharray:none"
       d="m 432.48945,996.22058 c -15.01176,-13.53467 -56.33916,-43.94063 -70.44675,-51.83004 -19.16431,-10.71729 -30.11056,-13.15784 -42.50556,-9.47693 -15.72106,4.66867 -43.75158,28.08346 -67.30005,56.2179 l -4.89021,5.84256 -17.03026,-5.63428 C 151.84413,965.37804 91.033964,924.93042 79.981044,891.34476 69.531655,859.59302 71.85012,792.09465 86.071069,714.04354 97.548508,651.05006 126.24129,548.34411 153.87934,471.32352 c 12.34939,-34.41479 12.6882,-35.06189 16.13146,-30.80965 3.29648,4.07099 7.92021,5.88009 7.92021,3.09892 0,-0.68452 -3.05759,-5.45749 -6.79465,-10.6066 -3.73706,-5.14913 -7.8714,-11.42862 -9.18743,-13.95441 -5.2553,-10.08625 -6.19785,-36.98132 -3.2376,-92.38229 3.04798,-57.04295 5.55049,-73.48965 19.05924,-125.25891 l 5.79899,-22.22336 18.96084,19.46447 c 47.94554,49.21905 73.4924,101.77062 79.56524,163.67088 l 1.31754,13.42971 -6.77914,1.44768 c -10.54937,2.25279 -20.32013,6.77229 -19.05757,8.81517 0.64306,1.04047 7.56579,-0.17496 15.80276,-2.77435 33.52834,-10.58106 79.11149,-14.08358 106.82877,-8.20851 7.35815,1.55966 18.90258,5.62432 25.65429,9.03257 6.94139,3.504 12.79458,5.35753 13.46956,4.26541 1.2793,-2.06996 -25.08768,-16.20389 -30.22853,-16.20389 -4.08958,0 -4.11254,-14.45563 -0.0566,-35.65394 9.25134,-48.35245 35.31479,-96.77529 73.15799,-135.91906 13.21866,-13.67294 21.29794,-20.61325 22.50121,-19.32909 2.30695,2.46211 12.75423,43.00304 18.47787,71.70409 7.2573,36.39153 11.23023,138.78075 6.11357,157.55745 -1.35862,4.98579 -6.15361,14.31606 -10.65551,20.73399 -4.50191,6.41792 -7.56995,12.28432 -6.81783,13.03644 0.75212,0.7521 2.93757,-0.79923 4.85655,-3.44743 1.91899,-2.6482 4.18939,-5.77532 5.04535,-6.94918 4.05783,-5.56491 21.19363,26.20463 33.70463,62.48783 21.58138,62.58839 39.4187,151.23366 47.53307,236.22276 3.55499,37.23477 4.03508,102.89093 0.91983,125.7984 -2.86898,21.09655 -11.46879,45.60923 -21.16896,60.3395 -17.61403,26.74793 -53.73082,55.85863 -92.58289,74.62322 -26.06731,12.58986 -26.81888,12.64756 -37.64218,2.88924 z"
       id="path4184"
       inkscape:connector-curvature="0" />
    <path
       style="fill:none;stroke:#000000;stroke-width:6;stroke-linecap:butt;stroke-linejoin:miter;stroke-miterlimit:4;stroke-dasharray:none;stroke-opacity:1"
       d="m 258.59905,385.66153 c 56.56854,-22.22336 119.198,-18.18275 139.40105,-8.08123 20.20305,10.10153 20.20305,10.10153 20.20305,10.10153 l 0,0"
       id="path3338"
       inkscape:connector-curvature="0" />
    <path
       style="fill:none;stroke:#000000;stroke-width:6;stroke-linecap:butt;stroke-linejoin:miter;stroke-miterlimit:4;stroke-dasharray:none;stroke-opacity:1"
       d="m 284.86302,375.53969 c 0,0 2.0203,-52.52793 -28.28427,-109.09647 -30.30458,-56.56854 -74.75129,-90.91373 -74.75129,-90.91373 0,0 -24.24366,86.87312 -24.24366,119.198 0,32.32488 -10.10153,109.09648 4.04061,129.29953 14.14213,20.20305 14.14213,20.20305 14.14213,20.20305"
       id="path4146"
       inkscape:connector-curvature="0" />
    <path
       style="fill:none;stroke:#000000;stroke-width:6;stroke-linecap:butt;stroke-linejoin:miter;stroke-miterlimit:4;stroke-dasharray:none;stroke-opacity:1"
       d="m 165.66502,432.12854 c 0,0 -117.177698,296.98485 -90.913732,450.52803 12.22956,71.4959 173.746232,117.17771 173.746232,117.17771 0,0 50.50763,-66.67008 82.83251,-64.64978 32.32488,2.02031 111.11678,72.731 111.11678,72.731 0,0 116.82844,-38.52281 139.40106,-125.25893 27.40108,-105.28966 -29.60415,-400.64993 -80.46199,-458.41893"
       id="path4176"
       inkscape:connector-curvature="0"
       sodipodi:nodetypes="cscscsc" />
    <path
       style="fill:none;stroke:#000000;stroke-width:6.00000095;stroke-linecap:butt;stroke-linejoin:miter;stroke-miterlimit:4;stroke-dasharray:none;stroke-opacity:1"
       d="m 384.86812,374.04453 c -4.4744,-0.23532 14.6522,-99.74978 43.43656,-134.3503 32.25641,-38.77411 59.49209,-77.91808 59.59899,-77.27666 l 20.20306,112.12692 c 0,0 11.87137,102.94594 0.50508,132.83507 l -13.63707,35.86041"
       id="path4358"
       inkscape:connector-curvature="0"
       sodipodi:nodetypes="csccsc" />
  </g>
  <g
     inkscape:groupmode="layer"
     id="layer2"
     inkscape:label="Eye"
     transform="translate(0,145.27562)">
    <path
       style="fill:none;stroke:#000000;stroke-width:10.00000119;stroke-linecap:butt;stroke-linejoin:miter;stroke-opacity:1;stroke-miterlimit:4;stroke-dasharray:none"
       d="m 188.39345,541.72985 140.4112,-2.52539"
       id="path4423"
       inkscape:connector-curvature="0" />
    <path
       style="fill:none;stroke:#000000;stroke-width:10.00000095;stroke-linecap:butt;stroke-linejoin:miter;stroke-miterlimit:4;stroke-dasharray:none;stroke-opacity:1"
       d="m 362.13969,540.71969 138.3909,11.61676"
       id="path4425"
       inkscape:connector-curvature="0"
       sodipodi:nodetypes="cc" />
  </g>
  <g
     inkscape:groupmode="layer"
     id="layer3"
     inkscape:label="umbrella"
     transform="translate(0,145.27562)">
    <path
       style="fill:none;stroke:#000000;stroke-width:10;stroke-linecap:butt;stroke-linejoin:miter;stroke-miterlimit:4;stroke-dasharray:none;stroke-opacity:1"
       d="M 551.54329,690.72759 593.9697,191.71224"
       id="path4290"
       inkscape:connector-curvature="0" />
    <path
       style="fill:#ff8080;stroke:#000000;stroke-width:6.00000072;stroke-linecap:butt;stroke-linejoin:miter;stroke-miterlimit:4;stroke-dasharray:none;stroke-opacity:1"
       d="m 590.41571,190.30094 -101.80169,35.15191 -27.74985,-59.96993 -135.55701,29.21202 c 0,0 29.89596,-298.28825 328.73458,-259.245253 303.73438,39.68263 209.96597,347.124993 209.96597,347.124993 l -129.37297,-61.51582 -46.6591,46.13687 z"
       id="path4300"
       inkscape:connector-curvature="0"
       sodipodi:nodetypes="ccccscccc" />
    <path
       style="fill:none;stroke:#000000;stroke-width:6.00000072;stroke-linecap:butt;stroke-linejoin:miter;stroke-opacity:1;stroke-miterlimit:4;stroke-dasharray:none"
       d="M 490.93414,116.9607 553.56359,44.22972"
       id="path4302"
       inkscape:connector-curvature="0" />
    <path
       style="fill:none;stroke:#000000;stroke-width:6.00000072;stroke-linecap:butt;stroke-linejoin:miter;stroke-opacity:1;stroke-miterlimit:4;stroke-dasharray:none"
       d="M 595.99,131.10284 612.15244,50.29063"
       id="path4304"
       inkscape:connector-curvature="0" />
    <path
       style="fill:none;stroke:#000000;stroke-width:6.00000072;stroke-linecap:butt;stroke-linejoin:miter;stroke-opacity:1;stroke-miterlimit:4;stroke-dasharray:none"
       d="M 709.12709,135.14345 678.82251,56.35155"
       id="path4306"
       inkscape:connector-curvature="0" />
  </g>
</svg>
